
<svg width="148" height="36" viewBox="0 0 148 36" fill="none" xmlns="http://www.w3.org/2000/svg">
<rect width="147.777" height="35" transform="translate(0 0.5)" fill="white"/>
<path d="M33.1413 16.5833C33.6796 16.5833 34.1191 16.1465 34.0865 15.6091C33.9785 13.8302 33.5755 12.0792 32.8917 10.4285C32.0835 8.47716 30.8988 6.70415 29.4053 5.21068C27.9119 3.71721 26.1388 2.53253 24.1875 1.72427C22.5368 1.04051 20.7858 0.637475 19.0069 0.529528C18.4695 0.496922 18.0327 0.936408 18.0327 1.47474V15.6085C18.0327 16.1469 18.4691 16.5833 19.0075 16.5833H33.1413Z" fill="#2FCC40"/>
<path d="M0.974705 18.5328C0.436369 18.5328 -0.00311661 18.9696 0.0294914 19.507C0.137436 21.2859 0.540476 23.0369 1.22423 24.6876C2.03249 26.6389 3.21717 28.4119 4.71064 29.9054C6.20411 31.3989 7.97712 32.5836 9.92843 33.3918C11.5792 34.0756 13.3301 34.4786 15.1091 34.5866C15.6464 34.6192 16.0832 34.1797 16.0832 33.6413V19.5076C16.0832 18.9692 15.6468 18.5328 15.1085 18.5328H0.974705Z" fill="#2FCC40"/>
<path d="M0.974705 16.5833C0.436369 16.5833 -0.00311661 16.1465 0.0294914 15.6091C0.137436 13.8302 0.540476 12.0792 1.22423 10.4285C2.03249 8.47716 3.21717 6.70415 4.71064 5.21068C6.20411 3.71721 7.97712 2.53253 9.92843 1.72427C11.5792 1.04051 13.3301 0.637475 15.1091 0.529528C15.6464 0.496922 16.0832 0.936408 16.0832 1.47474V15.6085C16.0832 16.1469 15.6468 16.5833 15.1085 16.5833H0.974705Z" fill="#2FCC40"/>
<path d="M18.8451 34.4536C18.3067 34.4536 17.8672 34.0168 17.8999 33.4795C18.0078 31.7005 18.4108 29.9496 19.0946 28.2988C19.9028 26.3475 21.0875 24.5745 22.581 23.081C24.0745 21.5876 25.8475 20.4029 27.7988 19.5946C29.4495 18.9109 31.2005 18.5078 32.9794 18.3999C33.5168 18.3673 33.9536 18.8068 33.9536 19.3451V33.4789C33.9536 34.0172 33.5172 34.4536 32.9789 34.4536H18.8451Z" fill="#2FCC40"/>
<path d="M55.3192 28.6791C53.8181 28.6791 52.479 28.4232 51.302 27.9115C50.1421 27.3998 49.1527 26.7004 48.3339 25.8134C47.5322 24.9093 46.9181 23.8858 46.4917 22.7429C46.0823 21.583 45.8776 20.3548 45.8776 19.0584C45.8776 17.6426 46.1079 16.3462 46.5684 15.1692C47.0461 13.9922 47.7113 12.9772 48.5642 12.1243C49.4171 11.2543 50.4321 10.5806 51.6091 10.1029C52.7861 9.62531 54.0825 9.3865 55.4983 9.3865C56.4194 9.3865 57.2382 9.48032 57.9547 9.66795C58.6711 9.85559 59.2596 10.0688 59.7202 10.3076C60.1807 10.5294 60.4707 10.7085 60.5901 10.845L59.3364 13.4037C58.8758 12.9943 58.3043 12.6616 57.622 12.4058C56.9568 12.1499 56.1721 12.022 55.268 12.022C54.091 12.022 53.0249 12.3119 52.0696 12.8919C51.1315 13.4719 50.3809 14.2907 49.818 15.3483C49.2721 16.4059 48.9992 17.6596 48.9992 19.1096C48.9992 20.3889 49.238 21.5574 49.7156 22.615C50.1933 23.6555 50.8926 24.4914 51.8138 25.1225C52.752 25.7537 53.8863 26.0692 55.2168 26.0692C55.9503 26.0692 56.6668 25.9754 57.3662 25.7878C58.0826 25.5831 58.8161 25.2504 59.5666 24.7899L60.411 27.2206C60.1893 27.4253 59.814 27.6471 59.2852 27.8859C58.7564 28.1077 58.1423 28.2953 57.4429 28.4488C56.7606 28.6023 56.0527 28.6791 55.3192 28.6791ZM62.3842 28.5V16.7556H65.1476V19.0584C65.4205 18.2908 65.8555 17.6682 66.4525 17.1905C67.0666 16.6959 67.7745 16.4485 68.5763 16.4485C69.1221 16.4485 69.4974 16.4997 69.7021 16.602L69.3183 19.391C69.1648 19.2887 68.8321 19.2375 68.3204 19.2375C67.8939 19.2375 67.4334 19.3313 66.9387 19.519C66.444 19.7066 66.0176 20.0392 65.6593 20.5169C65.3182 20.9774 65.1476 21.6256 65.1476 22.4615V28.5H62.3842ZM76.7339 28.7559C75.2669 28.7559 74.0729 28.4744 73.1517 27.9115C72.2306 27.3315 71.5568 26.5724 71.1304 25.6343C70.7039 24.6961 70.4907 23.6982 70.4907 22.6406C70.4907 21.3612 70.7466 20.261 71.2583 19.3398C71.7871 18.4187 72.5121 17.7108 73.4332 17.2161C74.3543 16.7044 75.3949 16.4485 76.5548 16.4485C78.4141 16.4485 79.7703 16.9688 80.6232 18.0093C81.4761 19.0328 81.9025 20.4145 81.9025 22.1544C81.9025 22.615 81.8769 23.0926 81.8257 23.5873H73.382C73.5697 24.6449 73.9449 25.404 74.5079 25.8645C75.0878 26.308 75.8554 26.5298 76.8107 26.5298C77.7318 26.5298 78.4568 26.4445 78.9856 26.2739C79.5144 26.1033 79.9494 25.9328 80.2905 25.7622L81.1349 27.7324C80.7937 27.9541 80.2649 28.1844 79.5485 28.4232C78.8321 28.645 77.8939 28.7559 76.7339 28.7559ZM73.382 21.6683H79.2159C79.2329 20.5595 78.9856 19.8004 78.4738 19.391C77.9621 18.9816 77.2968 18.7769 76.4781 18.7769C75.6252 18.7769 74.9258 19.0072 74.3799 19.4678C73.8511 19.9113 73.5185 20.6448 73.382 21.6683ZM89.9938 28.7559C88.9533 28.7559 87.981 28.5085 87.0769 28.0138C86.1899 27.5192 85.4734 26.8113 84.9276 25.8901C84.3817 24.969 84.1088 23.8687 84.1088 22.5894C84.1088 21.3442 84.3391 20.2695 84.7996 19.3654C85.2773 18.4443 85.9425 17.7279 86.7954 17.2161C87.6654 16.7044 88.6974 16.4485 89.8915 16.4485C90.5738 16.4485 91.2134 16.5679 91.8105 16.8067C92.4075 17.0285 92.9192 17.327 93.3457 17.7023C93.7721 18.0776 94.0792 18.4869 94.2668 18.9305L94.1389 16.9347V9.69354H96.8511V28.5H94.2157L94.1645 26.4275C93.9939 26.8027 93.7039 27.1695 93.2945 27.5277C92.9022 27.8859 92.4246 28.1844 91.8617 28.4232C91.2987 28.645 90.6761 28.7559 89.9938 28.7559ZM90.4544 26.4275C91.0855 26.4275 91.657 26.2825 92.1687 25.9925C92.6975 25.6854 93.1154 25.259 93.4225 24.7131C93.7466 24.1673 93.9086 23.5191 93.9086 22.7685V22.5894C93.9086 21.8218 93.7466 21.1565 93.4225 20.5936C93.1154 20.0136 92.6975 19.5701 92.1687 19.2631C91.657 18.939 91.0855 18.7769 90.4544 18.7769C89.3115 18.7769 88.45 19.1437 87.8701 19.8772C87.3072 20.6107 87.0257 21.5147 87.0257 22.5894C87.0257 23.6811 87.3072 24.5937 87.8701 25.3272C88.45 26.0607 89.3115 26.4275 90.4544 26.4275ZM100.397 28.5V16.7556H103.262V28.5H100.397ZM101.829 14.5551C101.301 14.5551 100.857 14.376 100.499 14.0177C100.158 13.6595 99.9871 13.216 99.9871 12.6872C99.9871 12.2096 100.158 11.8002 100.499 11.459C100.857 11.1179 101.301 10.9473 101.829 10.9473C102.358 10.9473 102.793 11.1179 103.134 11.459C103.493 11.8002 103.672 12.2096 103.672 12.6872C103.672 13.216 103.493 13.6595 103.134 14.0177C102.793 14.376 102.358 14.5551 101.829 14.5551ZM107.787 28.5V19.0072H105.714V16.7556H107.787V11.9708L110.576 11.3567V16.7556H113.288V19.0072H110.576V28.5H107.787ZM124.489 28.7559C123.074 28.7559 121.769 28.5085 120.575 28.0138C119.398 27.5192 118.374 26.8368 117.504 25.9669C116.651 25.0799 115.986 24.0393 115.508 22.8453C115.048 21.6341 114.818 20.3292 114.818 18.9305C114.818 17.5488 115.056 16.2779 115.534 15.118C116.012 13.958 116.685 12.9516 117.555 12.0987C118.425 11.2458 119.457 10.5891 120.651 10.1285C121.846 9.6509 123.15 9.41208 124.566 9.41208C125.675 9.41208 126.63 9.51443 127.432 9.71913C128.251 9.90677 128.899 10.12 129.377 10.3588C129.871 10.5806 130.187 10.7597 130.323 10.8961L129.198 13.3013C129.078 13.199 128.839 13.0454 128.481 12.8407C128.123 12.636 127.62 12.4484 126.971 12.2778C126.34 12.1073 125.522 12.022 124.515 12.022C123.116 12.022 121.922 12.329 120.933 12.9431C119.944 13.5401 119.184 14.3504 118.656 15.3739C118.127 16.3973 117.862 17.5317 117.862 18.7769C117.862 20.2269 118.152 21.5147 118.732 22.6406C119.312 23.7493 120.106 24.6193 121.112 25.2504C122.118 25.8645 123.261 26.1716 124.541 26.1716C125.274 26.1716 126.016 26.0778 126.767 25.8901C127.534 25.7025 128.183 25.3869 128.711 24.9434V21.31H124.848V18.6746H131.552V26.0436C130.989 26.7601 130.102 27.3912 128.89 27.9371C127.679 28.4829 126.212 28.7559 124.489 28.7559ZM140.05 28.7559C138.822 28.7559 137.739 28.4829 136.8 27.9371C135.879 27.3912 135.163 26.6492 134.651 25.711C134.139 24.7728 133.884 23.7323 133.884 22.5894C133.884 21.4636 134.131 20.4401 134.626 19.519C135.137 18.5808 135.854 17.8387 136.775 17.2929C137.696 16.73 138.788 16.4485 140.05 16.4485C141.312 16.4485 142.404 16.73 143.325 17.2929C144.246 17.8387 144.954 18.5808 145.449 19.519C145.944 20.4401 146.191 21.4636 146.191 22.5894C146.191 23.7323 145.935 24.7728 145.423 25.711C144.929 26.6492 144.221 27.3912 143.3 27.9371C142.378 28.4829 141.295 28.7559 140.05 28.7559ZM140.127 26.5042C141.15 26.5042 141.935 26.1289 142.481 25.3784C143.044 24.6278 143.325 23.7152 143.325 22.6406C143.325 21.9071 143.189 21.2503 142.916 20.6704C142.643 20.0733 142.25 19.5957 141.739 19.2375C141.244 18.8793 140.656 18.7002 139.973 18.7002C139.308 18.7002 138.737 18.8793 138.259 19.2375C137.781 19.5957 137.406 20.0733 137.133 20.6704C136.877 21.2503 136.749 21.9071 136.749 22.6406C136.749 23.357 136.894 24.0137 137.184 24.6108C137.474 25.1907 137.867 25.6513 138.361 25.9925C138.873 26.3336 139.461 26.5042 140.127 26.5042Z" fill="#132124"/>
</svg>
